<svg xmlns="http://www.w3.org/2000/svg" viewBox="0 0 500 500" width="500" height="500">
  <g transform="translate(0,500) scale(0.1,-0.1)" fill="#000" stroke="none">
    <path d="M1352 3841 c-45 -21 -99 -52 -120 -70 l-37 -32 29 6 c16 3 67 24 113 46 47 21 91 39 99 39 17 0 138 -60 132 -65 -2 -2 -21 0 -43 5 -22 5 -40 8 -42 7 -1 -1 38 -22 87 -46 49 -25 87 -48 85 -52 -4 -6 -139 22 -244 51 -19 5 -36 8 -38 6 -2 -2 38 -25 89 -50 97 -49 135 -73 127 -80 -2 -2 -36 9 -74 26 -39 16 -81 34 -95 40 -56 21 8 -21 121 -79 l115 -61 39 30 c60 44 140 82 160 75 26 -11 13 -37 -30 -61 -72 -38 -87 -53 -81 -74 5 -14 -9 -48 -44 -110 -57 -101 -122 -255 -150 -356 -11 -38 -21 -70 -22 -70 -58 -34 -58 -34 -58 -106 0 -62 -2 -70 -19 -70 -22 0 -28 12 -37 80 -6 48 -9 52 -53 73 -67 33 -244 128 -259 140 -32 25 6 14 125 -36 152 -65 199 -81 217 -74 8 3 19 35 26 74 14 80 67 227 122 337 22 43 37 80 34 83 -7 7 -70 -83 -118 -169 -24 -43 -48 -78 -54 -78 -11 0 -114 46 -271 121 -44 21 -86 39 -92 39 -5 0 -14 7 -19 16 -9 16 -10 15 -71 -138 -17 -42 -31 -89 -31 -105 0 -15 14 -89 30 -163 17 -74 30 -142 30 -152 0 -19 37 -38 261 -132 167 -70 167 -70 250 -33 19 8 55 23 80 33 63 26 95 51 131 102 34 49 35 49 139 0 l66 -30 -5 -68 c-4 -64 -3 -70 42 -156 25 -49 78 -132 116 -184 107 -144 104 -116 35 -316 -33 -95 -57 -175 -55 -177 3 -2 21 -7 42 -11 49 -9 60 5 87 111 43 164 73 258 92 284 l19 27 -113 114 c-62 63 -134 144 -160 180 -54 77 -55 79 -32 268 34 291 35 296 71 339 45 52 54 80 43 127 -13 59 -11 74 9 74 69 0 109 -196 59 -290 l-22 -43 22 -91 c13 -50 26 -117 30 -149 6 -59 22 -87 49 -87 28 0 98 -43 137 -84 63 -66 97 -147 97 -232 0 -63 -3 -76 -30 -112 -16 -22 -46 -52 -67 -67 l-38 -26 70 7 c116 11 155 43 155 126 0 55 -25 126 -69 199 -18 28 -30 53 -27 56 3 3 17 -4 33 -14 30 -21 162 -82 280 -129 101 -40 109 -47 94 -80 -20 -44 -94 -125 -132 -145 -20 -10 -66 -23 -103 -30 -67 -13 -82 -23 -46 -32 19 -5 19 -6 -5 -66 -14 -33 -25 -64 -25 -68 0 -4 24 17 54 46 29 29 56 49 59 44 3 -5 -8 -54 -24 -109 -45 -145 -45 -149 -25 -141 10 4 21 7 26 7 10 0 44 80 60 140 19 71 38 101 110 170 37 36 84 91 104 122 19 31 40 59 45 62 5 4 31 -2 58 -13 l48 -19 12 -135 c6 -75 17 -149 25 -164 10 -22 45 -44 158 -100 213 -106 197 -104 307 -37 137 83 124 65 234 319 28 66 82 181 119 256 l67 136 8 114 c8 133 12 125 -100 181 -140 69 -160 80 -185 94 -14 8 -54 29 -90 45 -72 34 -64 35 -175 -31 -74 -43 -73 -42 -136 -165 -28 -55 -57 -106 -64 -114 -11 -12 -25 -9 -87 17 l-73 30 -5 60 c-3 32 -10 65 -16 73 -6 8 -14 43 -18 77 -7 78 -30 113 -93 145 -36 17 -56 37 -83 82 -42 68 -76 92 -144 101 -35 5 -55 14 -70 33 -62 76 -73 81 -156 81 -68 0 -80 3 -106 25 -41 35 -93 33 -157 -6 -39 -24 -63 -31 -105 -33 -69 -1 -89 -24 -105 -124 -15 -85 -24 -97 -69 -88 -58 11 -60 15 -44 87 17 70 16 76 -34 254 -28 102 -40 119 -99 149 -72 37 -389 176 -398 175 -4 0 -45 -18 -91 -38z m1096 -414 c24 -21 24 -25 18 -122 -6 -94 -35 -258 -49 -271 -3 -4 -27 1 -53 10 -79 27 -85 1 -7 -34 45 -20 45 -20 38 -57 -18 -99 -77 -130 -122 -64 -29 43 -30 112 -3 201 31 103 36 172 15 241 l-19 60 30 25 c59 50 107 53 152 11z m210 -47 l32 -20 0 -90 c0 -69 -4 -100 -19 -128 -10 -20 -32 -80 -49 -132 -38 -121 -77 -218 -99 -242 -25 -28 -67 -23 -97 13 -38 45 -36 129 5 241 17 45 42 114 56 151 25 68 27 110 7 174 -13 47 103 70 164 33z m196 -111 c24 -19 26 -27 26 -93 0 -61 -7 -89 -44 -186 -75 -196 -81 -209 -119 -255 -46 -55 -83 -60 -117 -18 -25 32 -22 76 10 166 10 29 37 104 59 167 28 79 41 131 41 168 0 45 3 54 23 62 39 16 93 11 121 -11z m-984 -18 c0 -5 -9 -15 -21 -22 -19 -13 -19 -14 13 -15 18 -1 59 -13 91 -28 63 -28 66 -37 45 -107 -7 -26 -17 -39 -29 -39 -25 0 -172 68 -185 86 -10 12 -15 7 -28 -32 -22 -66 -21 -91 7 -100 12 -4 64 -27 115 -51 91 -43 93 -45 90 -76 -3 -28 -7 -32 -28 -29 -24 2 -192 76 -218 96 -10 7 -13 30 -10 81 5 114 80 245 139 245 11 0 19 -4 19 -9z m1155 -150 c27 -16 30 -22 29 -67 0 -66 -73 -293 -108 -339 -15 -20 -33 -34 -39 -32 -7 2 -25 -7 -40 -19 -34 -28 -59 -30 -83 -7 -32 33 -13 116 66 278 38 80 70 159 70 175 0 15 6 30 13 33 17 7 57 -3 92 -22z m638 -104 c132 -74 157 -90 157 -98 0 -5 -36 4 -80 20 -44 15 -80 27 -80 25 0 -1 32 -24 70 -50 106 -71 97 -74 -57 -20 -40 13 -73 23 -73 21 0 -2 41 -29 92 -61 50 -32 87 -59 81 -61 -16 -6 -196 85 -215 108 -27 32 -23 78 9 111 33 34 43 35 96 5z m-2336 -117 c14 -11 23 -20 20 -20 -12 0 -117 53 -123 61 -8 14 76 -19 103 -41z m2278 -50 c6 -4 73 -40 150 -80 77 -40 146 -78 153 -85 11 -10 0 -39 -66 -166 -71 -137 -82 -154 -103 -151 -29 3 -249 99 -267 116 -11 11 -5 38 34 152 26 76 49 146 51 154 10 36 -77 -140 -153 -309 -87 -191 -112 -234 -99 -171 26 132 166 485 218 548 10 13 61 8 82 -8z m-461 -87 c93 -40 93 -40 61 -112 -15 -34 -34 -61 -41 -61 -14 0 -76 26 -141 58 -32 16 -43 44 -23 57 6 4 19 24 30 46 11 21 28 39 36 39 9 0 44 -12 78 -27z m-537 -129 c213 -75 227 -79 283 -66 49 11 51 11 152 -39 57 -27 108 -55 115 -62 15 -15 6 -57 -12 -57 -7 0 -57 18 -111 39 -128 50 -446 165 -504 182 -48 13 -70 26 -70 40 0 14 12 11 147 -37z m703 -409 c19 -14 38 -25 43 -25 18 0 222 -113 211 -117 -18 -6 -306 114 -316 131 -10 18 -3 36 16 36 7 0 27 -11 46 -25z"/>
    <path d="M2456 2955 c-6 -16 21 -31 78 -42 36 -7 32 16 -5 33 -48 23 -66 25 -73 9z"/>
    <path d="M2642 2889 c7 -22 65 -51 95 -47 l28 3 -35 22 c-47 29 -94 41 -88 22z"/>
    <path d="M2836 2801 c-7 -11 10 -25 56 -44 48 -20 57 -6 17 27 -31 26 -63 34 -73 17z"/>
    <path d="M1127 3716 c-29 -31 -116 -206 -162 -325 -34 -88 -40 -141 -16 -141 5 0 23 39 40 88 41 111 116 269 163 344 34 53 36 58 17 58 -11 0 -30 -11 -42 -24z"/>
    <path d="M4020 2486 c-20 -48 -103 -230 -152 -336 -54 -116 -55 -148 -3 -96 28 28 152 281 186 378 33 95 7 141 -31 54z"/>
    <path d="M1440 1635 c0 -3 19 -38 41 -78 129 -223 129 -224 129 -271 l0 -46 40 0 40 0 0 52 c0 42 7 64 39 117 95 162 121 210 121 220 0 18 -65 13 -82 -6 -8 -10 -28 -43 -44 -73 -15 -30 -39 -74 -52 -98 l-25 -43 -40 73 c-22 40 -49 91 -61 113 -19 36 -26 40 -64 43 -23 2 -42 1 -42 -3z"/>
    <path d="M2048 1631 c-139 -45 -189 -203 -101 -320 83 -109 297 -99 378 17 26 38 30 52 30 112 0 60 -4 73 -31 111 -17 24 -48 52 -69 63 -42 21 -162 31 -207 17z m169 -81 c87 -53 80 -192 -12 -232 -44 -19 -124 -15 -163 7 -59 36 -77 130 -36 193 34 52 150 70 211 32z"/>
    <path d="M2575 1629 c-51 -12 -113 -62 -131 -105 -31 -74 -10 -177 48 -231 55 -52 172 -71 265 -44 56 16 108 69 122 127 20 80 15 84 -105 84 l-104 0 0 -30 0 -30 70 0 c39 0 70 -4 70 -9 0 -5 -12 -23 -26 -40 -61 -73 -219 -59 -258 24 -34 71 -7 153 59 181 40 16 132 19 171 3 24 -9 30 -7 46 13 10 13 18 26 18 29 1 27 -170 47 -245 28z"/>
    <path d="M2970 1440 l0 -200 40 0 40 0 0 200 0 200 -40 0 -40 0 0 -200z"/>
    <path d="M3158 1633 c-2 -5 -2 -95 0 -200 l3 -193 35 0 34 0 0 155 c0 85 3 155 8 155 4 0 61 -29 127 -63 l120 -63 3 -92 3 -92 40 0 39 0 -2 198 -3 197 -37 3 -38 3 0 -65 c0 -36 -3 -66 -6 -66 -3 0 -62 29 -130 65 -82 43 -136 65 -159 65 -18 0 -35 -3 -37 -7z"/>
    <path d="M1902 924 c-13 -26 -20 -49 -16 -53 4 -3 9 0 11 7 3 6 20 12 38 12 18 0 35 -6 38 -12 2 -7 7 -10 11 -7 9 9 -35 99 -49 99 -6 0 -21 -21 -33 -46z m45 -20 c-3 -4 -13 -4 -22 0 -13 5 -14 10 -4 28 l12 23 10 -23 c6 -12 7 -25 4 -28z"/>
    <path d="M2010 920 c0 -27 5 -50 10 -50 6 0 10 23 10 50 0 28 -4 50 -10 50 -5 0 -10 -22 -10 -50z"/>
    <path d="M2230 918 c1 -45 3 -50 13 -36 7 9 26 18 41 20 68 8 54 68 -15 68 l-39 0 0 -52z m77 26 c7 -18 -12 -34 -39 -34 -13 0 -18 8 -18 25 0 20 5 25 25 25 14 0 28 -7 32 -16z"/>
    <path d="M2367 952 c-22 -24 -21 -45 1 -65 22 -20 63 -22 80 -5 18 18 15 75 -4 82 -29 11 -61 6 -77 -12z m71 -4 c32 -32 -18 -87 -53 -58 -28 23 -12 70 25 70 9 0 21 -5 28 -12z"/>
    <path d="M2505 920 c28 -55 39 -61 49 -27 l7 22 11 -22 c6 -13 15 -23 19 -23 10 0 51 91 44 98 -7 7 -9 3 -27 -42 -15 -38 -16 -39 -27 -18 -8 15 -9 28 -2 41 9 16 7 19 -14 19 -21 0 -23 -4 -18 -28 8 -41 -11 -44 -30 -5 -9 19 -21 35 -27 35 -6 0 1 -22 15 -50z"/>
    <path d="M2670 920 l0 -50 43 1 42 2 -35 6 c-49 8 -55 41 -8 42 l33 1 -29 7 c-44 9 -44 29 1 34 l38 4 -42 1 -43 2 0 -50z"/>
    <path d="M2780 918 c1 -46 2 -51 14 -35 16 21 42 22 50 2 11 -29 21 -14 21 33 l0 47 -42 3 -43 3 0 -53z m75 22 c0 -9 -11 -16 -27 -18 -23 -3 -28 1 -28 18 0 17 5 21 28 18 16 -2 27 -9 27 -18z"/>
    <path d="M2910 920 l0 -50 43 2 42 1 -37 4 c-30 3 -38 9 -38 24 0 15 7 19 33 20 l32 1 -29 7 c-44 9 -44 29 1 34 l38 4 -42 1 -43 2 0 -50z"/>
    <path d="M3020 920 c0 -48 1 -50 28 -50 38 0 72 26 72 55 0 28 -26 45 -69 45 -30 0 -31 -1 -31 -50z m68 28 c18 -18 14 -46 -7 -58 -33 -17 -41 -11 -41 30 0 32 4 40 18 40 10 0 23 -5 30 -12z"/>
    <path d="M2113 923 c9 -2 25 -2 35 0 9 3 1 5 -18 5 -19 0 -27 -2 -17 -5z"/>
    <path d="M2670 740 c-16 -4 -25 -13 -25 -25 0 -16 8 -21 43 -23 30 -2 42 -8 42 -19 0 -12 -10 -14 -45 -11 -53 4 -60 -8 -11 -17 41 -8 76 8 76 35 0 20 -5 23 -50 24 -40 1 -34 20 7 26 33 5 35 6 13 11 -14 3 -36 2 -50 -1z"/>
    <path d="M2801 738 c-39 -14 -22 -43 27 -46 30 -2 42 -8 42 -19 0 -12 -10 -14 -45 -11 -25 2 -45 0 -45 -4 0 -13 68 -20 89 -9 40 22 17 62 -34 58 -16 -1 -30 4 -33 12 -3 10 4 12 32 9 20 -2 36 -1 36 3 0 11 -45 16 -69 7z"/>
    <path d="M2121 688 c1 -39 3 -46 8 -28 5 17 16 27 36 31 l30 7 -32 1 c-51 2 -43 29 10 34 l42 4 -47 1 -48 2 1 -52z"/>
    <path d="M2233 690 c0 -30 2 -43 4 -27 2 15 2 39 0 55 -2 15 -4 2 -4 -28z"/>
    <path d="M2288 733 c19 -4 22 -11 24 -51 l1 -47 6 44 c4 31 12 46 26 52 13 5 4 7 -30 7 -27 0 -40 -3 -27 -5z"/>
    <path d="M2390 689 c0 -31 4 -48 10 -44 6 3 10 22 10 41 0 38 13 43 48 18 12 -8 23 -27 23 -42 1 -20 4 -16 8 13 7 41 0 89 -7 53 -3 -16 -6 -16 -39 -3 -19 8 -39 15 -44 15 -5 0 -9 -23 -9 -51z"/>
    <path d="M2530 690 l0 -50 40 0 c22 0 40 5 40 10 0 6 -16 10 -35 10 -24 0 -35 5 -35 15 0 11 11 15 36 15 21 0 33 4 29 10 -3 6 -20 10 -38 10 -38 0 -25 17 18 23 24 3 21 4 -12 6 l-43 1 0 -50z"/>
  </g>
</svg>
